PathFileType	4	(X/Y/Z)	Patient4_TMGait_0pt5_02_left_41.trc.trc
DataRate	CameraRate	NumFrames	NumMarkers	Units	OrigDataRate	OrigDataStartFrame	OrigNumFrames
76.923076923077	76.923076923077	4	33	mm	76.923076923077	124	       141
Frame#	Time	Sacral			L.Shoulder			Chest			R.Shoulder			Neck			R.ASIS			L.ASIS			R.Thigh.Superior			R.Thigh.Lateral			R.Thigh.Inferior			R.Patella			L.Thigh.Superior			L.Thigh.Lateral			L.Thigh.Inferior			L.Patella			L.Shank.Superior			L.Shank.Lateral			L.Shank.Inferior			R.Shank.Superior			R.Shank.Lateral			R.Shank.Inferior			R.Heel			R.Midfoot.Superior			R.Midfoot.Lateral			R.Toe			L.Heel			L.Midfoot.Lateral			L.Midfoot.Superior			L.Toe			L.Elbow			L.Wrist			R.Elbow			R.Wrist			
		X1	Y1	Z1	X2	Y2	Z2	X3	Y3	Z3	X4	Y4	Z4	X5	Y5	Z5	X6	Y6	Z6	X7	Y7	Z7	X8	Y8	Z8	X9	Y9	Z9	X10	Y10	Z10	X11	Y11	Z11	X12	Y12	Z12	X13	Y13	Z13	X14	Y14	Z14	X15	Y15	Z15	X16	Y16	Z16	X17	Y17	Z17	X18	Y18	Z18	X19	Y19	Z19	X20	Y20	Z20	X21	Y21	Z21	X22	Y22	Z22	X23	Y23	Z23	X24	Y24	Z24	X25	Y25	Z25	X26	Y26	Z26	X27	Y27	Z27	X28	Y28	Z28	X29	Y29	Z29	X30	Y30	Z30	X31	Y31	Z31	X32	Y32	Z32	X33	Y33	Z33	

124	54.489000000000	672.157157927394	1015.111235749918	514.636397453872	859.220726438582	1425.803257000655	311.080181574439	973.474844593072	1346.927051337809	459.635671136001	917.075015754762	1429.392432366393	641.301584400517	880.236654255519	1486.699003142689	459.783111951172	900.940844549430	928.869945595532	608.100230119840	864.435287828430	952.063179550597	335.837296796509	900.452892778885	718.341656887124	573.796924659098	803.991072959596	624.144130451899	638.840489160657	858.848151049347	561.239318418694	551.321649845611	840.469645304329	475.882077523541	554.354924349707	933.535006932229	767.820961985871	370.108380425351	876.264371408424	640.423327084520	300.542515693700	975.492745620419	578.994930542568	364.798838803808	995.969370162304	511.056583658862	365.641741338851	978.240892443706	438.497873164474	355.427283335826	907.877387337084	311.098955439102	304.935034268895	987.464205630194	209.589037577553	365.633153828107	801.549420986546	391.842389498914	562.240827702876	720.031829507141	297.675995718957	625.818774561978	742.826353743724	200.050118679970	559.006025481833	588.362561637427	44.317814909699	529.213522875421	760.371415568415	96.072080048456	565.341414932978	671.055586350848	36.401135286338	604.215823576679	879.350784267522	39.587998103612	595.741083643873	892.343336900247	38.676686020201	404.656347437475	968.097778026670	38.668028752312	325.993391918460	1043.943052105823	108.661924843900	349.411204589223	1175.513378227877	68.766664827412	326.776126634983	698.654075748521	1104.609828669818	228.145786681173	641.805471972690	851.468648352910	237.515007584837	1032.429569792057	1111.409868161897	755.101754868722	1276.644569947807	1123.613407967726	686.091690132240	
125	54.502000000000	673.264471099512	1014.116624156527	512.508825912334	858.786907521807	1424.852133403550	308.654841869620	973.282425300877	1346.725087737817	457.436859136514	916.344086676011	1429.075940994168	638.987883522251	879.542428902264	1486.096094938552	457.263867973704	901.970225054382	928.580142214083	607.124857913935	866.343697931441	950.694630504645	334.786740134399	899.700592709514	717.422186658990	573.701310644287	801.755221882861	623.958221517948	638.303552081594	856.473014832654	560.318752884874	551.383749669342	837.174200388097	475.144166268763	554.168479363491	935.809833526229	766.307157810026	369.349508914133	876.789116904182	638.471373055818	301.091390356746	976.818242334165	577.315824837279	364.540355098098	995.876381590317	508.542248451073	366.533067181051	977.605901942830	435.791761668542	356.575672782453	905.639199105680	309.408455232374	305.982365737251	982.924319300444	206.778941129410	367.309530378727	797.629295760709	391.502305205655	562.100498940260	715.299689993992	298.094522385576	625.779866866750	737.300359266950	200.165396165278	559.128513899733	581.872818625876	45.035008955971	529.516374485289	754.097531240275	96.199007574109	565.588562634687	664.614783887136	36.600389062153	604.363162105544	872.911028234812	39.370539160426	595.791598281790	883.977537750095	38.576419251011	405.681599917691	959.938096222291	37.612098068354	327.092723461943	1037.659031544152	105.127172429197	351.704761266975	1168.498566308547	61.694814552417	328.877797279245	699.172394594122	1103.047859144446	226.360420323843	643.872563469464	849.438006134506	235.957411549088	1030.396222246555	1109.867031425542	752.126205967103	1273.579788481586	1126.419868781539	681.366468325074	
126	54.515000000000	674.384916049515	1013.324821643057	510.227482166169	858.510640662329	1424.033926042951	306.172416759336	973.197706850818	1346.670240872964	455.235631792966	915.669401648846	1428.923326498511	636.649177124571	878.960050621227	1485.658794653339	454.677154048339	902.976426093246	928.384685196751	606.085509311981	868.347122226507	949.581021376387	333.704886266750	899.136754156113	716.677194334303	573.592956492910	799.666841020819	623.978191186018	637.686333127060	854.335692528950	559.590222861514	551.426499465376	834.136086279518	474.531702572760	553.989762125587	938.057934159787	764.959000733104	368.771686969437	877.760686041965	636.950228099706	301.356022409714	978.194198716660	575.885627664493	364.490349304833	995.957218370677	506.345314544695	367.445574916883	977.143596962563	433.421876162168	357.609107353834	903.785976765431	308.072319719079	306.605776945620	978.535206971684	204.299406372399	368.712815123816	793.925265815400	391.307828945173	561.975910810172	710.690265527167	298.742844998917	625.742936785100	731.923428704436	200.473865706677	559.322014495847	575.447988823504	46.085134929239	529.890443687158	747.967534898458	96.395324773452	565.906977704232	658.238230217565	36.945902727716	604.564025342014	866.532169535916	39.117369406232	595.846857253083	875.792379841748	38.486000657150	406.223445959545	952.029908881442	36.815800624174	327.792637500834	1031.347901390768	102.155728749718	353.650580068497	1161.592453738217	55.599971063853	330.738516820299	700.472751658626	1101.250250630717	224.311757145897	647.291851375616	847.025458390893	234.052816437794	1027.845489050936	1108.203492652328	749.207734033218	1270.193063052726	1127.793727296854	676.855577469456	
127	54.528000000000	675.480577979209	1012.793685563368	507.830572531187	858.402768737211	1423.413731071935	303.671329360464	973.225204682042	1346.782564821393	453.049756207027	915.102950140732	1428.974452232228	634.307530773959	878.524635260437	1485.430827972271	452.064580978546	903.925840339928	928.319049144073	604.938771013152	870.334492119072	948.803416375680	332.534506746307	898.770482672302	716.157568602047	573.397465233560	797.816447044920	624.219266840333	636.958029051755	852.530941081505	559.090001595078	551.397615145448	831.472766732658	474.052680733739	553.795908959087	940.160015553039	763.897687283388	368.369630040452	879.155145639386	635.949232657644	301.296228295814	979.535387175121	574.797239819970	364.627059543204	996.159863208761	504.559361676941	368.301153150973	976.808143284862	431.476837681225	358.468109908458	902.289067742843	307.144857419662	306.828315418146	974.370115491356	202.265379146391	369.819824050665	790.528661765576	391.268251961926	561.852624525275	706.279252842895	299.649575612020	625.693893590389	726.755363080227	200.994836158364	559.585107779492	569.112360007627	47.535154788884	530.334504798029	742.009172219127	96.668649688234	566.295067922497	651.938676703886	37.474003657427	604.820311513459	860.217115090089	38.829939776442	595.903862907136	868.031572663421	38.435654435457	406.398554187875	944.559839884642	36.293775508482	328.165678098017	1025.146066144642	99.862619001811	355.185868381070	1154.936776980286	50.705754916492	332.241881101599	702.544349343129	1099.312815499517	222.019274875965	652.052821923138	844.342277202224	231.802963000760	1024.786324800727	1106.486035840653	746.362309326624	1266.547599961730	1127.666862158427	672.580808340805	
